<?xml version="1.0" encoding="UTF-8" standalone="no"?>
<svg
   xmlns="http://www.w3.org/2000/svg"
   xmlns:svg="http://www.w3.org/2000/svg"
   xmlns:xlink="http://www.w3.org/1999/xlink"
   width="525" height="700"
   version="1.1">
  <defs>
    <style type="text/css">
    <![CDATA[
      path.border { fill: wheat; }
      line.border { stroke: wheat; }
      rect.border { stroke: wheat; }
      text {
        fill: wheat;
        font-family: 'Times New Roman', serif;
        font-weight: bold;
        text-anchor: middle; }
      .author { font-size: 25pt; }
      .title  { font-size: 30pt; }
    ]]>
    </style>
    <radialGradient id="rgr1"
      cx=".5" cy=".5" r="1.5">
      <stop offset="0" stop-color="darkred" />
      <stop offset="1" stop-color="black" />
    </radialGradient>
  </defs>
  <!-- Hintergrund -->
  <rect width="100%" height="100%" fill="url(#rgr1)"/>
  <!-- Text -->
  <text x="267" y="250" class="author">Author Author</text>
  <text x="267" y="300" class="title" >Title Title Title</text>
  <!-- Rahmen außen -->
  <rect x="10" y="10" width="505" height="680" class="border" style="fill: none; stroke-width: 2;" />
  <!-- mittlerer Rahmen mit Ornament -->
  <g transform="translate(-5,0)">
    <!-- Ecken -->
    <g id="upperLeft">
      <path class="border"
         d="m 106.28314,56.925653 c -1.78718,-3.24372 -4.85228,-7.59722 -6.811356,-9.67444 -2.75581,-2.92202 -3.36951,-4.20804 -2.71164,-5.68238 0.76029,-1.70386 1.24751,-1.42088 4.601966,2.6728 4.15342,5.0687 8.99671,14.82638 8.49377,17.11223 -0.17783,0.8082 -1.78556,-1.18449 -3.57274,-4.42821 z m -51.368223,-3.92367 c -3.104448,-3.10445 -3.882353,-4.62039 -3.882353,-7.56574 0,-2.02586 0.465833,-4.5538 1.035184,-5.61765 0.990392,-1.85056 0.615391,-1.93426 -8.666667,-1.93426 -5.336018,0 -9.481033,-0.22081 -9.211146,-0.4907 0.405972,-0.40597 19.717939,-1.4539 24.842629,-1.34804 20.476903,0.423 32.94321,0.17063 32.66473,-0.66126 -0.40568,-1.211878 -50.664388,-1.401331 -50.664593,-0.19098 -7.5e-5,0.44496 -0.397626,0.56336 -0.883447,0.2631 -0.48582,-0.30025 -2.62332,-0.808931 -4.75,-1.130399 C 32.077804,33.823986 29.590229,31.812752 17.758077,20.062953 3.7859316,6.188056 2.1190786,2.96715 11.674712,8.307895 c 5.656091,3.16125 5.702933,3.16195 5.113101,0.07644 -0.592216,-3.097976 0.370712,-3.155885 3.775673,-0.227061 1.786764,1.53691 2.940005,3.865675 3.561332,7.191476 0.505385,2.705195 1.894817,5.957372 3.087628,7.22706 2.634138,2.803912 4.273781,3.024719 2.861214,0.385313 -0.5661,-1.057766 -1.51828,-4.203376 -2.115956,-6.990244 -1.259558,-5.873119 0.06181,-11.474009 3.089204,-13.094221 2.39432,-1.281401 6.691686,-1.276994 7.485656,0.0077 0.339919,0.55 0.141476,1 -0.440983,1 -0.582459,0 -1.059017,0.675 -1.059017,1.5 0,1.146491 1.261346,1.5 5.352117,1.5 9.334517,0 15.652826,6.205855 14.085757,13.835059 l -0.752793,3.664941 -0.819654,-4.421392 C 53.14095,10.485095 44.539254,6.751558 38.013611,12.634358 c -4.218494,3.802929 -4.893974,8.732695 -2.01223,14.685585 1.686801,3.484465 2.76186,4.564415 4.543745,4.564415 2.301169,0 2.311112,-0.04592 0.703768,-3.25 -1.972506,-3.931992 -2.155333,-12.913644 -0.308171,-15.139338 1.680535,-2.024921 5.454521,-2.083512 7.092302,-0.110107 1.010426,1.217489 0.833544,2.457824 -0.937665,6.575109 -2.256387,5.245114 -1.72576,7.924336 1.569436,7.924336 0.763039,0 2.157947,0.9 3.099796,2 1.600381,1.869109 2.949938,2 20.621055,2 l 18.908607,0 -0.56855,-3.503564 C 89.865814,23.081918 85.203924,17.224556 79.58622,14.38476 74.331841,11.728624 69.282265,11.282265 62.532564,12.877297 c -3.308353,0.781802 -4.217855,0.655827 -5.25992,-0.728553 -1.779059,-2.363472 0.18582,-3.248804 8.816088,-3.972334 8.761695,-0.734549 25.854072,2.376335 22.146412,4.030739 -2.51535,1.122383 -2.82255,2.225305 -0.83251,2.988955 1.9503,0.748401 6.62993,10.548606 6.62993,13.884578 0,2.535162 0.33372,2.803656 3.48467,2.803656 l 3.484666,0 -0.48055,-6.25 c -0.41985,-5.460668 -0.34967,-5.807974 0.55574,-2.75 0.56995,1.925 1.52269,4.7375 2.1172,6.25 l 1.08092,2.75 10.37868,0 10.37868,0 0,-3.377555 c 0,-4.423975 -2.18329,-6.315594 -5.52962,-4.790906 -3.21455,1.464644 -3.24199,-0.279856 -0.0374,-2.379558 4.18845,-2.744415 8.567,1.079714 8.567,7.482278 0,1.686157 0.45001,3.065741 1,3.065741 0.55,0 1,-0.675 1,-1.5 0,-0.825 0.45,-1.5 1,-1.5 0.55,0 1,0.675 1,1.5 0,1.215686 1.61111,1.5 8.5,1.5 9.37399,0 10.14283,-0.641768 6.42742,-5.365141 -2.06327,-2.623024 -2.06353,-2.634859 -0.0567,-2.634859 1.10873,0 2.71639,1.000128 3.57258,2.222506 1.53335,2.189175 1.5567,2.169004 1.5567,-1.345012 0,-3.52468 -2.35404,-6.877494 -4.82874,-6.877494 -0.64419,0 -1.17126,-0.45 -1.17126,-1 0,-1.434459 4.29802,-1.233789 6.39356,0.298509 1.11915,0.818343 2.03867,3.314373 2.48664,6.75 l 0.71084,5.451491 1.72738,-7.5 c 2.34561,-10.184259 4.01949,-12.427352 3.29635,-4.417316 -0.30202,3.345477 -0.82563,6.945477 -1.16358,8 -0.54731,1.707778 -0.46893,1.743915 0.71717,0.330659 1.37886,-1.642916 5.12799,-3.913343 6.46207,-3.913343 0.41904,0 -0.58734,1.4625 -2.23643,3.25 -6.08996,6.601134 -6.12414,6.75 -1.54978,6.75 5.57441,0 11.15578,-5.311647 11.15578,-10.616667 0,-2.406468 0.40265,-3.409191 1.25,-3.112871 0.71643,0.250537 1.20367,1.966984 1.14145,4.021132 l -0.10854,3.584004 4.51084,-3.444286 c 8.77853,-6.702903 20.01271,-7.70871 23.67482,-2.119628 2.95063,4.503234 -1.72936,10.224666 -6.34357,7.755214 -2.00284,-1.071887 -2.84541,-4.013157 -1.52723,-5.33133 0.97314,-0.973145 3.40223,0.362991 3.40223,1.871421 0,0.766156 0.42344,1.393011 0.94098,1.393011 1.80138,0 1.96532,-1.688766 0.38322,-3.947524 -1.40635,-2.007852 -2.25149,-2.225784 -7.23391,-1.865388 -4.33158,0.313319 -6.75774,1.176045 -10.44872,3.715509 -2.64396,1.819091 -6.68243,4.379759 -8.97438,5.690375 l -4.16719,2.382937 8,-0.01976 c 6.86594,-0.01696 7.75192,-0.208074 6.25,-1.348197 -2.18143,-1.655938 -2.23412,-2.607952 -0.14436,-2.607952 0.88311,0 2.94263,-1.125 4.57673,-2.5 3.41192,-2.870939 5.31659,-3.242661 4.40193,-0.859095 -0.8389,2.186137 2.15945,6.671406 3.99014,5.968904 0.78406,-0.300872 1.42556,-0.111163 1.42556,0.421576 0,0.532738 2.25,0.968615 5,0.968615 3.79915,0 5,0.363753 5,1.514566 0,1.22426 -1.05422,1.427453 -5.5,1.060084 -4.33064,-0.357855 -5.5,-0.148341 -5.5,0.985435 0,1.08382 1.40139,1.43991 5.66667,1.43991 3.11666,0 5.42049,0.24618 5.11961,0.54706 -0.30088,0.30088 -12.73194,0.52008 -27.62458,0.48711 -25.2796,-0.056 -27.14276,0.0619 -28.05985,1.77552 -0.54027,1.00951 -2.79724,3.09322 -5.01549,4.63047 l -4.03319,2.795 3.14632,2.13242 c 3.94573,2.67422 5.26663,5.48744 1.67369,3.56455 -1.29703,-0.69415 -8.24886,-1.59724 -15.44851,-2.00687 -16.8241,-0.95723 -20.68359,-2.13398 -26.72229,-8.14758 -4.0157,-3.99901 -5.40797,-4.77768 -8.542586,-4.77768 -3.61078,0 -3.78949,0.16643 -4.9872,4.64453 -1.73001,6.46834 -4.73758,10.27551 -9.93282,12.57362 -11.930891,5.2776 -21.566099,-5.09181 -12.83976,-13.81815 l 3.4,-3.4 -4.368615,0 c -3.67378,0 -4.266469,0.26619 -3.726391,1.67361 0.49492,1.28975 0.24013,1.51931 -1.110848,1.0009 -2.621131,-1.00583 -6.504434,0.28935 -7.729218,2.57788 -0.98796,1.84602 -0.83862,1.97574 1.712997,1.48797 3.689984,-0.70539 5.422075,0.0506 5.422075,2.36663 0,1.26532 -0.706826,1.89301 -2.131669,1.89301 -1.909699,0 -2.075802,0.41652 -1.595157,4 0.677835,5.05364 -0.430641,5.07783 -5.390821,0.11765 z m 28.819107,-1.07716 c 4.63389,-2.82545 10.00857,-14.04049 6.72874,-14.04049 -0.78661,0 -1.4302,0.675 -1.4302,1.5 0,1.16246 -1.3169,1.5 -5.85211,1.5 -9.906649,0 -16.102125,6.04577 -11.209383,10.93851 2.623044,2.62305 7.55809,2.66583 11.762953,0.10198 z m 47.983436,-7.1071 c 3.00193,-1.1374 7.3151,-4.73866 7.3151,-6.1077 0,-0.45413 -2.3625,-0.81568 -5.25,-0.80345 -3.66562,0.0155 -6.00447,0.61239 -7.75,1.97776 -2.09545,1.63909 -2.20727,1.95913 -0.69098,1.97777 0.99497,0.0122 1.5309,0.47223 1.19098,1.02223 -0.97574,1.57878 -10.27223,1.16498 -13.79966,-0.61424 -2.24677,-1.13327 -2.81476,-1.20776 -1.90626,-0.25 3.25753,3.43417 15.0447,5.01267 20.89082,2.79763 z m 13.3151,-4.43339 2.34863,-2.5 -2.55773,0 c -1.93415,0 -2.67425,0.60952 -3.03564,2.5 -0.26285,1.375 -0.16875,2.5 0.20911,2.5 0.37786,0 1.74389,-1.125 3.03564,-2.5 z m -27.76166,-2.20726 c -1.24391,-0.23919 -3.04391,-0.23011 -4,0.0202 -0.95609,0.2503 0.0617,0.446 2.26166,0.4349 2.20001,-0.0111 2.98225,-0.21588 1.73834,-0.45508 z m -15.23834,-2.29274 c 0,-0.55 -0.45,-1.044995 -1,-1.099995 -3.611396,-0.361141 -5.999996,-0.201901 -5.999996,0.399995 0,0.385 0,0.925 0,1.2 0,0.275 1.57501,0.5 3.5,0.5 1.924996,0 3.499996,-0.45 3.499996,-1 z m 20.5,0 c 0.72755,-1.177198 0.99632,-1.128835 -8.25,-1.484499 -6.74651,-0.259507 -8.24648,0.154678 -6.58333,1.817839 1.06408,1.06408 14.15145,0.76998 14.83333,-0.33334 z m 16.5,-0.38107 c 0,-1.768786 -7.16071,-1.636795 -7.75395,0.14293 -0.28315,0.84943 0.86924,1.23814 3.67062,1.23814 2.80669,0 4.08333,-0.43179 4.08333,-1.38107 z m 9.67076,-0.11893 c 0.17863,-0.549995 -1.24921,-1.112225 -3.17299,-1.249395 -2.61128,-0.186192 -3.49777,0.146669 -3.49777,1.313355 0,1.15451 0.82891,1.4809 3.17299,1.2494 1.74514,-0.17234 3.31914,-0.76336 3.49777,-1.31336 z m 43.53673,0.25 c -0.7592,-0.91479 -5.28378,-1.213489 -16.87244,-1.113862 -19.60979,0.168584 -19.33505,0.149205 -19.33505,1.363862 0,0.63087 6.87415,1 18.62244,1 14.78457,0 18.40865,-0.25761 17.58505,-1.25 z m -1.84586,-5.249995 c -0.31659,-0.825 -0.70432,-1.5 -0.86163,-1.5 -0.15731,0 -0.54504,0.675 -0.86163,1.5 -0.3471,0.904548 -0.005,1.5 0.86163,1.5 0.8667,0 1.20873,-0.595452 0.86163,-1.5 z"
         id="path0"
         transform="translate(20, 20)" />
      <use id="path1" xlink:href="#path0" transform="rotate(90) translate(100, -100) scale(1, -1) translate(-103, -97)"/>
    </g>
    <use id="lowerRight" xlink:href="#upperLeft"  transform="rotate(180, 267, 350)"/>
    <use id="lowerLeft"  xlink:href="#lowerRight" transform="scale(-1, 1) translate(-534, 0)"/>
    <use id="upperRight" xlink:href="#upperLeft"  transform="scale(-1, 1) translate(-534, 0)"/>
    <!-- Verbindungen außen -->
    <line x1="210"   y1="53.3"  x2="320"   y2="53.3"  class="border" style="stroke-width: 2.7;"/>
    <line x1="210"   y1="646.8" x2="320"   y2="646.8" class="border" style="stroke-width: 2.7;"/>
    <line x1="56.3"  y1="210"   x2="56.3"  y2="500"   class="border" style="stroke-width: 2.7;"/>
    <line x1="477.7" y1="210"   x2="477.7" y2="500"   class="border" style="stroke-width: 2.7;"/>
    <!-- Verbindungen innen -->
    <line x1="210"   y1="57.3"  x2="320"   y2="57.3"  class="border" style="stroke-width: 1.0;"/>
    <line x1="210"   y1="642.7" x2="320"   y2="642.7" class="border" style="stroke-width: 1.0;"/>
    <line x1="60.3"  y1="210"   x2="60.3"  y2="550"   class="border" style="stroke-width: 1.0;"/>
    <line x1="473.5" y1="210"   x2="473.5" y2="550"   class="border" style="stroke-width: 1.0;"/>
  </g>
  <!-- Rahmen innen -->
  <rect x="85" y="85" width="355" height="530" class="border" style="fill: none; stroke-width: 1;" />
</svg>
